bicep_curl
version=1
nRows=260
nColumns=3
inDegrees=yes

# SIMM Motion File Header:
name bicep_curl
datacolumns 3
datarows 260
otherdata 1
range 0.0000 0.2590
endheader
time	/jointset/r_shoulder/r_shoulder_elev/value	/jointset/r_elbow/r_elbow_flex/value
0.0000	0.0000	104.0200
0.0010	0.0000	104.0351
0.0020	0.0000	104.0502
0.0030	0.0000	104.0651
0.0040	0.0000	104.0798
0.0050	0.0000	104.0945
0.0060	0.0000	104.1090
0.0070	0.0000	104.1234
0.0080	0.0000	104.1377
0.0090	0.0000	104.1519
0.0100	0.0000	104.1659
0.0110	0.0000	104.1798
0.0120	0.0000	104.1936
0.0130	0.0000	104.2072
0.0140	0.0000	104.2208
0.0150	0.0000	104.2342
0.0160	0.0000	104.2474
0.0170	0.0000	104.2606
0.0180	0.0000	104.2736
0.0190	0.0000	104.2865
0.0200	0.0000	104.2993
0.0210	0.0000	104.3120
0.0220	0.0000	104.3245
0.0230	0.0000	104.3369
0.0240	0.0000	104.3492
0.0250	0.0000	104.3614
0.0260	0.0000	104.3734
0.0270	0.0000	104.3853
0.0280	0.0000	104.3971
0.0290	0.0000	104.4088
0.0300	0.0000	104.4203
0.0310	0.0000	104.4317
0.0320	0.0000	104.4430
0.0330	0.0000	104.4542
0.0340	0.0000	104.4652
0.0350	0.0000	104.4761
0.0360	0.0000	104.4869
0.0370	0.0000	104.4976
0.0380	0.0000	104.5081
0.0390	0.0000	104.5186
0.0400	0.0000	104.5289
0.0410	0.0000	104.5390
0.0420	0.0000	104.5491
0.0430	0.0000	104.5590
0.0440	0.0000	104.5688
0.0450	0.0000	104.5785
0.0460	0.0000	104.5880
0.0470	0.0000	104.5974
0.0480	0.0000	104.6067
0.0490	0.0000	104.6159
0.0500	0.0000	104.6249
0.0510	0.0000	104.6339
0.0520	0.0000	104.6427
0.0530	0.0000	104.6513
0.0540	0.0000	104.6599
0.0550	0.0000	104.6683
0.0560	0.0000	104.6766
0.0570	0.0000	104.6848
0.0580	0.0000	104.6928
0.0590	0.0000	104.7008
0.0600	0.0000	104.7086
0.0610	0.0000	104.7163
0.0620	0.0000	104.7238
0.0630	0.0000	104.7312
0.0640	0.0000	104.7385
0.0650	0.0000	104.7457
0.0660	0.0000	104.7528
0.0670	0.0000	104.7597
0.0680	0.0000	104.7665
0.0690	0.0000	104.7732
0.0700	0.0000	104.7798
0.0710	0.0000	104.7862
0.0720	0.0000	104.7925
0.0730	0.0000	104.7987
0.0740	0.0000	104.8047
0.0750	0.0000	104.8107
0.0760	0.0000	104.8165
0.0770	0.0000	104.8222
0.0780	0.0000	104.8277
0.0790	0.0000	104.8332
0.0800	0.0000	104.8385
0.0810	0.0000	104.8437
0.0820	0.0000	104.8488
0.0830	0.0000	104.8537
0.0840	0.0000	104.8585
0.0850	0.0000	104.8632
0.0860	0.0000	104.8678
0.0870	0.0000	104.8722
0.0880	0.0000	104.8765
0.0890	0.0000	104.8807
0.0900	0.0000	104.8848
0.0910	0.0000	104.8887
0.0920	0.0000	104.8925
0.0930	0.0000	104.8962
0.0940	0.0000	104.8998
0.0950	0.0000	104.9033
0.0960	0.0000	104.9066
0.0970	0.0000	104.9098
0.0980	0.0000	104.9128
0.0990	0.0000	104.9158
0.1000	0.0000	104.9186
0.1010	0.0000	104.9213
0.1020	0.0000	104.9239
0.1030	0.0000	104.9263
0.1040	0.0000	104.9287
0.1050	0.0000	104.9309
0.1060	0.0000	104.9329
0.1070	0.0000	104.9349
0.1080	0.0000	104.9367
0.1090	0.0000	104.9384
0.1100	0.0000	104.9400
0.1110	0.0000	104.9415
0.1120	0.0000	104.9428
0.1130	0.0000	104.9440
0.1140	0.0000	104.9451
0.1150	0.0000	104.9460
0.1160	0.0000	104.9469
0.1170	0.0000	104.9476
0.1180	0.0000	104.9481
0.1190	0.0000	104.9486
0.1200	0.0000	104.9489
0.1210	0.0000	104.9491
0.1220	0.0000	104.9492
0.1230	0.0000	104.9492
0.1240	0.0000	104.9490
0.1250	0.0000	104.9487
0.1260	0.0000	104.9483
0.1270	0.0000	104.9478
0.1280	0.0000	104.9471
0.1290	0.0000	104.9463
0.1300	0.0000	104.9454
0.1310	0.0000	104.9444
0.1320	0.0000	104.9432
0.1330	0.0000	104.9419
0.1340	0.0000	104.9405
0.1350	0.0000	104.9390
0.1360	0.0000	104.9373
0.1370	0.0000	104.9356
0.1380	0.0000	104.9336
0.1390	0.0000	104.9316
0.1400	0.0000	104.9295
0.1410	0.0000	104.9272
0.1420	0.0000	104.9248
0.1430	0.0000	104.9222
0.1440	0.0000	104.9196
0.1450	0.0000	104.9168
0.1460	0.0000	104.9139
0.1470	0.0000	104.9109
0.1480	0.0000	104.9077
0.1490	0.0000	104.9044
0.1500	0.0000	104.9010
0.1510	0.0000	104.8975
0.1520	0.0000	104.8939
0.1530	0.0000	104.8901
0.1540	0.0000	104.8862
0.1550	0.0000	104.8822
0.1560	0.0000	104.8780
0.1570	0.0000	104.8737
0.1580	0.0000	104.8693
0.1590	0.0000	104.8648
0.1600	0.0000	104.8602
0.1610	0.0000	104.8554
0.1620	0.0000	104.8505
0.1630	0.0000	104.8455
0.1640	0.0000	104.8403
0.1650	0.0000	104.8351
0.1660	0.0000	104.8297
0.1670	0.0000	104.8242
0.1680	0.0000	104.8185
0.1690	0.0000	104.8128
0.1700	0.0000	104.8069
0.1710	0.0000	104.8008
0.1720	0.0000	104.7947
0.1730	0.0000	104.7884
0.1740	0.0000	104.7820
0.1750	0.0000	104.7755
0.1760	0.0000	104.7689
0.1770	0.0000	104.7621
0.1780	0.0000	104.7552
0.1790	0.0000	104.7482
0.1800	0.0000	104.7411
0.1810	0.0000	104.7338
0.1820	0.0000	104.7264
0.1830	0.0000	104.7189
0.1840	0.0000	104.7113
0.1850	0.0000	104.7035
0.1860	0.0000	104.6957
0.1870	0.0000	104.6877
0.1880	0.0000	104.6795
0.1890	0.0000	104.6713
0.1900	0.0000	104.6629
0.1910	0.0000	104.6544
0.1920	0.0000	104.6457
0.1930	0.0000	104.6370
0.1940	0.0000	104.6281
0.1950	0.0000	104.6191
0.1960	0.0000	104.6100
0.1970	0.0000	104.6007
0.1980	0.0000	104.5913
0.1990	0.0000	104.5818
0.2000	0.0000	104.5722
0.2010	0.0000	104.5625
0.2020	0.0000	104.5526
0.2030	0.0000	104.5426
0.2040	0.0000	104.5325
0.2050	0.0000	104.5222
0.2060	0.0000	104.5118
0.2070	0.0000	104.5013
0.2080	0.0000	104.4907
0.2090	0.0000	104.4800
0.2100	0.0000	104.4691
0.2110	0.0000	104.4581
0.2120	0.0000	104.4470
0.2130	0.0000	104.4357
0.2140	0.0000	104.4244
0.2150	0.0000	104.4129
0.2160	0.0000	104.4012
0.2170	0.0000	104.3895
0.2180	0.0000	104.3776
0.2190	0.0000	104.3656
0.2200	0.0000	104.3535
0.2210	0.0000	104.3413
0.2220	0.0000	104.3289
0.2230	0.0000	104.3164
0.2240	0.0000	104.3038
0.2250	0.0000	104.2911
0.2260	0.0000	104.2782
0.2270	0.0000	104.2652
0.2280	0.0000	104.2521
0.2290	0.0000	104.2389
0.2300	0.0000	104.2255
0.2310	0.0000	104.2120
0.2320	0.0000	104.1984
0.2330	0.0000	104.1847
0.2340	0.0000	104.1708
0.2350	0.0000	104.1568
0.2360	0.0000	104.1427
0.2370	0.0000	104.1285
0.2380	0.0000	104.1141
0.2390	0.0000	104.0996
0.2400	0.0000	104.0850
0.2410	0.0000	104.0703
0.2420	0.0000	104.0555
0.2430	0.0000	104.0405
0.2440	0.0000	104.0254
0.2450	0.0000	104.0101
0.2460	0.0000	103.9948
0.2470	0.0000	103.9793
0.2480	0.0000	103.9637
0.2490	0.0000	103.9480
0.2500	0.0000	103.9321
0.2510	0.0000	103.9161
0.2520	0.0000	103.9000
0.2530	0.0000	103.8838
0.2540	0.0000	103.8675
0.2550	0.0000	103.8510
0.2560	0.0000	103.8344
0.2570	0.0000	103.8177
0.2580	0.0000	103.8008
0.2590	0.0000	103.7839
